FFmpeg version SVN-r25716, Copyright (c) 2000-2010 the FFmpeg developers  built on Nov 10 2010 12:23:18 with gcc 4.1.2 20080704 (Red Hat 4.1.2-48)  configuration: --enable-libmp3lame --enable-shared --disable-mmx --arch=x86_64  libavutil     50.33. 0 / 50.33. 0  libavcore      0.12. 1 /  0.12. 1  libavcodec    52.94. 4 / 52.94. 4  libavformat   52.84. 0 / 52.84. 0  libavdevice   52. 2. 2 / 52. 2. 2  libavfilter    1.59. 0 /  1.59. 0  libswscale     0.12. 0 /  0.12. 0Input #0, mov,mp4,m4a,3gp,3g2,mj2, from '/RAID10/data/converted_video_files/26313.mov':  Metadata:    major_brand     : qt      minor_version   : 537199360    compatible_brands: qt      encoder         : CoreMediaAuthoring 700, CoreMedia 484.20, i386    encoder-eng     : CoreMediaAuthoring 700, CoreMedia 484.20, i386  Duration: 00:00:40.37, start: -1.541667, bitrate: 1958 kb/s    Stream #0.0(eng): Video: h264, yuv420p, 512x512, 1965 kb/s, 24 fps, 24 tbr, 24 tbn, 48 tbc[buffer @ 0x1e155370] w:512 h:512 pixfmt:yuv420pOutput #0, flv, to '/RAID10/data/converted_video_files/26313.flv':  Metadata:    encoder         : Lavf52.84.0    Stream #0.0(eng): Video: flv, yuv420p, 512x512, q=2-31, 600 kb/s, 1k tbn, 24 tbcStream mapping:  Stream #0.0 -> #0.0Press [q] to stop encodingframe=   36 fps=  0 q=31.0 size=     550kB time=1.50 bitrate=3002.4kbits/s    frame=   64 fps= 61 q=31.0 size=     730kB time=2.67 bitrate=2242.1kbits/s    frame=   96 fps= 59 q=31.0 size=     909kB time=4.00 bitrate=1862.5kbits/s    frame=  127 fps= 55 q=31.0 size=    1056kB time=5.29 bitrate=1634.8kbits/s    frame=  139 fps= 54 q=31.0 size=    1097kB time=5.79 bitrate=1551.7kbits/s    frame=  157 fps= 51 q=24.8 size=    1199kB time=6.54 bitrate=1502.0kbits/s    frame=  175 fps= 49 q=31.0 size=    1283kB time=7.29 bitrate=1441.1kbits/s    frame=  207 fps= 50 q=31.0 size=    1460kB time=8.62 bitrate=1386.3kbits/s    frame=  226 fps= 49 q=31.0 size=    1548kB time=9.42 bitrate=1346.7kbits/s    frame=  248 fps= 48 q=31.0 size=    1649kB time=10.33 bitrate=1307.0kbits/s    frame=  268 fps= 47 q=31.0 size=    1733kB time=11.17 bitrate=1271.6kbits/s    frame=  292 fps= 47 q=31.0 size=    1856kB time=12.17 bitrate=1249.5kbits/s    frame=  326 fps= 48 q=31.0 size=    2035kB time=13.58 bitrate=1227.6kbits/s    frame=  356 fps= 48 q=31.0 size=    2173kB time=14.83 bitrate=1200.0kbits/s    frame=  366 fps= 48 q=31.0 size=    2211kB time=15.25 bitrate=1187.6kbits/s    frame=  388 fps= 47 q=31.0 size=    2283kB time=16.17 bitrate=1156.9kbits/s    frame=  430 fps= 49 q=31.0 size=    2500kB time=17.92 bitrate=1143.1kbits/s    frame=  458 fps= 50 q=31.0 size=    2665kB time=19.08 bitrate=1144.1kbits/s    frame=  493 fps= 51 q=24.8 size=    2814kB time=20.54 bitrate=1122.1kbits/s    frame=  533 fps= 52 q=31.0 size=    2966kB time=22.21 bitrate=1094.1kbits/s    frame=  561 fps= 52 q=31.0 size=    3102kB time=23.38 bitrate=1087.3kbits/s    frame=  599 fps= 53 q=31.0 size=    3287kB time=24.96 bitrate=1078.9kbits/s    frame=  635 fps= 54 q=31.0 size=    3444kB time=26.46 bitrate=1066.2kbits/s    frame=  673 fps= 53 q=24.8 size=    3581kB time=28.04 bitrate=1046.0kbits/s    frame=  679 fps= 53 q=31.0 size=    3592kB time=28.29 bitrate=1040.1kbits/s    frame=  707 fps= 53 q=31.0 size=    3692kB time=29.46 bitrate=1026.7kbits/s    frame=  733 fps= 53 q=24.8 size=    3805kB time=30.54 bitrate=1020.7kbits/s    frame=  779 fps= 55 q=31.0 size=    3959kB time=32.46 bitrate= 999.1kbits/s    frame=  806 fps= 55 q=31.0 size=    4055kB time=33.58 bitrate= 989.0kbits/s    frame=  828 fps= 54 q=31.0 size=    4114kB time=34.50 bitrate= 976.9kbits/s    frame=  851 fps= 54 q=31.0 size=    4178kB time=35.46 bitrate= 965.2kbits/s    frame=  878 fps= 54 q=31.0 size=    4248kB time=36.58 bitrate= 951.2kbits/s    frame=  916 fps= 53 q=31.0 size=    4343kB time=38.17 bitrate= 932.2kbits/s    frame=  918 fps= 53 q=31.0 size=    4347kB time=38.25 bitrate= 930.9kbits/s    frame=  960 fps= 54 q=31.0 size=    4463kB time=40.00 bitrate= 914.0kbits/s    [h264 @ 0x1e151050] AVC: nal size 4606[h264 @ 0x1e151050] concealing 410 DC, 410 AC, 410 MV errorsframe=  964 fps= 54 q=31.0 Lsize=    4469kB time=40.21 bitrate= 910.6kbits/s    video:4454kB audio:0kB global headers:0kB muxing overhead 0.342772%